#!OML:ASF F:\VICON\USERDATA\INSTALL\rory3\rory3.ASF
:FULLY-SPECIFIED
:DEGREES
524
root 1.08375 15.2171 -6.02506 -4.67596 -10.2088 0.66531
lowerback -1.07232 8.59913 9.72903
upperback -1.13938 11.4683 -4.56697
thorax 2.24106 5.86472 -9.58948
lowerneck -1.24699 -3.84069 -8.97854
upperneck 47.8497 -0.539151 -7.03445
head 18.6355 -2.60161 -1.84711
rclavicle -9.70069e-014 3.89618e-014
rhumerus 51.803 -3.37173 -70.3936
rradius 135.646
rwrist -60.0384
rhand -0.0304399 -44.5586
rfingers 7.12502
rthumb 25.5612 -72.8636
lclavicle -9.70069e-014 3.89618e-014
lhumerus -31.3159 -31.349 81.4346
lradius 33.7563
lwrist 18.6299
lhand -14.4496 -24.3482
lfingers 7.12502
lthumb 11.6956 5.30533
rfemur -22.7814 -26.323 26.0388
rtibia 69.9896
rfoot -48.8908 -36.6719
rtoes 11.6441
lfemur -31.6829 -17.2829 2.63182
ltibia 14.8294
lfoot 14.4424 -2.01045
ltoes -17.2052
525
root 1.08125 15.2184 -6.02393 -4.63119 -9.96531 0.764722
lowerback -1.13499 8.57404 9.58668
upperback -1.23462 11.4311 -4.59101
thorax 2.14366 5.83532 -9.54175
lowerneck -0.977457 -3.84173 -9.10772
upperneck 47.859 -0.572594 -6.97391
head 18.5771 -2.62734 -1.79247
rclavicle -3.66758e-014 -3.33958e-014
rhumerus 51.7942 -3.20538 -70.2982
rradius 135.585
rwrist -60.0284
rhand 1.06625 -44.4957
rfingers 7.12502
rthumb 26.6113 -72.6457
lclavicle -3.66758e-014 -3.33958e-014
lhumerus -31.615 -30.9973 81.4836
lradius 33.8437
lwrist 18.4687
lhand -14.9732 -25.2015
lfingers 7.12502
lthumb 11.1906 4.48003
rfemur -22.8358 -26.5023 25.9405
rtibia 70.0169
rfoot -48.9619 -36.6159
rtoes 11.6417
lfemur -31.8183 -17.4208 2.51982
ltibia 14.7703
lfoot 14.4839 -2.05571
ltoes -17.082
526
root 1.07924 15.2203 -6.02311 -4.61214 -9.78181 0.866241
lowerback -1.15697 8.56336 9.47712
upperback -1.31232 11.4168 -4.62562
thorax 2.05645 5.81969 -9.52501
lowerneck -0.807471 -3.84718 -9.09771
upperneck 47.8909 -0.579707 -7.01382
head 18.5544 -2.63096 -1.8119
rclavicle 9.33294e-014 -2.3059e-014
rhumerus 51.8453 -3.13481 -70.3015
rradius 135.709
rwrist -60.122
rhand -1.0293 -41.8623
rfingers 7.12502
rthumb 24.6041 -70.301
lclavicle 9.33294e-014 -2.3059e-014
lhumerus -31.8537 -30.5626 81.4272
lradius 34.0356
lwrist 18.232
lhand -14.9132 -24.896
lfingers 7.12502
lthumb 11.2484 4.78242
rfemur -22.8649 -26.647 25.8273
rtibia 70.0388
rfoot -48.9407 -36.6582
rtoes 11.5214
lfemur -31.8555 -17.5273 2.39691
ltibia 14.6414
lfoot 14.5691 -2.10368
ltoes -17.1018
527
root 1.07824 15.2209 -6.02124 -4.54285 -9.57723 1.01162
lowerback -1.20999 8.55785 9.32926
upperback -1.40965 11.4077 -4.68738
thorax 1.96548 5.80591 -9.51248
lowerneck -0.775764 -3.87458 -9.03549
upperneck 47.9825 -0.568903 -7.13633
head 18.6077 -2.63078 -1.88737
rclavicle 6.95746e-015 -3.97569e-015
rhumerus 51.8583 -3.06712 -70.3329
rradius 135.888
rwrist -60.1367
rhand -1.16317 -40.4808
rfingers 7.12502
rthumb 24.4758 -68.937
lclavicle 6.95746e-015 -3.97569e-015
lhumerus -32.1276 -30.5285 81.4893
lradius 34.2164
lwrist 18.4652
lhand -14.6272 -23.5212
lfingers 7.12502
lthumb 11.5243 6.14203
rfemur -22.9603 -26.8275 25.6738
rtibia 70.0676
rfoot -48.935 -36.6457
rtoes 11.502
lfemur -31.9327 -17.6133 2.22749
ltibia 14.476
lfoot 14.6399 -2.16309
ltoes -16.9436
528
root 1.07602 15.2208 -6.02269 -4.45468 -9.36792 1.10068
lowerback -1.26757 8.55955 9.22989
upperback -1.43891 11.4068 -4.73099
thorax 1.95652 5.80376 -9.49845
lowerneck -0.943491 -3.92319 -8.99937
upperneck 48.026 -0.563596 -7.25737
head 18.6826 -2.63739 -1.9606
rclavicle 2.8128e-014 2.22639e-014
rhumerus 52.0032 -2.9558 -70.2943
rradius 135.906
rwrist -60.0383
rhand -0.180685 -39.1531
rfingers 7.12502
rthumb 25.4173 -67.4786
lclavicle 2.8128e-014 2.22639e-014
lhumerus -32.196 -30.6416 81.6044
lradius 34.1941
lwrist 18.8285
lhand -14.9454 -23.2157
lfingers 7.12502
lthumb 11.2174 6.46445
rfemur -23.087 -27.002 25.6114
rtibia 70.0951
rfoot -49.0695 -36.5412
rtoes 11.5573
lfemur -32.0555 -17.6959 2.1386
ltibia 14.3449
lfoot 14.688 -2.27761
ltoes -16.9853
529
root 1.07357 15.2195 -6.02468 -4.396 -9.20987 1.07148
lowerback -1.37446 8.56044 9.27122
upperback -1.37402 11.3988 -4.7374
thorax 2.09196 5.80982 -9.50472
lowerneck -1.12704 -3.96352 -8.97437
upperneck 48.0042 -0.572453 -7.32759
head 18.7164 -2.64439 -2.00408
rclavicle 2.15681e-014 -5.56597e-015
rhumerus 52.3132 -2.88769 -70.2951
rradius 135.838
rwrist -59.9468
rhand 2.44999 -37.5875
rfingers 7.12502
rthumb 27.9349 -65.5294
lclavicle 2.15681e-014 -5.56597e-015
lhumerus -32.0146 -30.6941 81.6358
lradius 33.9826
lwrist 19.0428
lhand -15.4201 -24.2755
lfingers 7.12502
lthumb 10.7596 5.42891
rfemur -23.1664 -27.1036 25.6852
rtibia 70.1133
rfoot -49.1966 -36.5297
rtoes 11.6339
lfemur -32.143 -17.6794 2.14134
ltibia 14.2727
lfoot 14.7241 -2.52016
ltoes -17.309
530
root 1.07286 15.2182 -6.02541 -4.31881 -9.06276 1.10284
lowerback -1.49745 8.56455 9.28221
upperback -1.34009 11.3952 -4.78497
thorax 2.20759 5.81633 -9.53822
lowerneck -1.25195 -4.0011 -8.98492
upperneck 48.0134 -0.611784 -7.31775
head 18.756 -2.66171 -2.00754
rclavicle 4.78077e-014 -6.36111e-015
rhumerus 52.5775 -2.88577 -70.3363
rradius 135.814
rwrist -59.8779
rhand 1.7724 -39.1937
rfingers 7.12502
rthumb 27.2869 -67.2393
lclavicle 4.78077e-014 -6.36111e-015
lhumerus -31.9257 -30.6774 81.5797
lradius 33.9255
lwrist 19.1815
lhand -15.1403 -24.8912
lfingers 7.12502
lthumb 11.0294 4.79905
rfemur -23.286 -27.2006 25.6929
rtibia 70.1468
rfoot -49.2301 -36.5746
rtoes 11.6153
lfemur -32.2752 -17.6307 2.07046
ltibia 14.243
lfoot 14.744 -2.63798
ltoes -17.2047
531
root 1.07182 15.216 -6.02691 -4.26072 -8.97505 1.02049
lowerback -1.4681 8.59416 9.4053
upperback -1.35383 11.4372 -4.8024
thorax 2.21411 5.83888 -9.62415
lowerneck -1.39012 -4.06443 -9.09873
upperneck 48.034 -0.705216 -7.22408
head 18.8113 -2.71018 -1.96138
rclavicle 8.10048e-014 -4.77083e-015
rhumerus 52.7542 -2.92846 -70.3778
rradius 135.919
rwrist -59.9124
rhand 1.23427 -39.8816
rfingers 7.12502
rthumb 26.772 -68.0071
lclavicle 8.10048e-014 -4.77083e-015
lhumerus -32.0645 -30.5049 81.5009
lradius 34.18
lwrist 19.1091
lhand -14.4912 -24.4447
lfingers 7.12502
lthumb 11.6555 5.2111
rfemur -23.365 -27.2348 25.8318
rtibia 70.1679
rfoot -49.278 -36.63
rtoes 11.6644
lfemur -32.3717 -17.5601 2.13142
ltibia 14.2422
lfoot 14.7472 -2.72048
ltoes -17.0286
532
root 1.06854 15.2134 -6.02871 -4.25612 -8.92645 0.897765
lowerback -1.37494 8.61728 9.53116
upperback -1.35286 11.4751 -4.78796
thorax 2.19364 5.85808 -9.6873
lowerneck -1.46049 -4.11308 -9.20485
upperneck 47.9759 -0.790423 -7.14146
head 18.7942 -2.7525 -1.912
rclavicle 4.9398e-014 7.95139e-015
rhumerus 52.9344 -2.93196 -70.3929
rradius 136.131
rwrist -59.9421
rhand 0.604946 -40.5005
rfingers 7.12502
rthumb 26.1697 -68.7167
lclavicle 4.9398e-014 7.95139e-015
lhumerus -32.1597 -30.385 81.4845
lradius 34.2555
lwrist 18.9533
lhand -14.4893 -24.433
lfingers 7.12502
lthumb 11.6573 5.2227
rfemur -23.3709 -27.2319 26.0056
rtibia 70.1793
rfoot -49.3263 -36.6936
rtoes 11.7697
lfemur -32.3835 -17.4139 2.19832
ltibia 14.2466
lfoot 14.7279 -2.92736
ltoes -17.0011
533
root 1.06561 15.2101 -6.02905 -4.23847 -8.79143 0.946561
lowerback -1.38732 8.61039 9.45656
upperback -1.3435 11.4658 -4.80882
thorax 2.19825 5.85388 -9.66737
lowerneck -1.55892 -4.14606 -9.26414
upperneck 47.9422 -0.831221 -7.11053
head 18.8002 -2.77536 -1.89272
rclavicle 1.4551e-013 -9.54166e-015
rhumerus 53.1224 -2.91332 -70.3723
rradius 136.289
rwrist -60.0054
rhand 0.0213896 -41.1737
rfingers 7.12502
rthumb 25.6109 -69.4715
lclavicle 1.4551e-013 -9.54166e-015
lhumerus -32.1699 -30.4258 81.5378
lradius 34.1521
lwrist 19.0118
lhand -14.7149 -25.042
lfingers 7.12502
lthumb 11.4398 4.62593
rfemur -23.425 -27.3309 25.974
rtibia 70.2169
rfoot -49.3807 -36.6753
rtoes 11.7077
lfemur -32.4563 -17.2747 2.0529
ltibia 14.2442
lfoot 14.7525 -3.16451
ltoes -16.8969
534
root 1.06442 15.2065 -6.02818 -4.1883 -8.57055 0.97138
lowerback -1.45281 8.57765 9.40514
upperback -1.36792 11.4171 -4.82282
thorax 2.19018 5.82746 -9.65234
lowerneck -1.62218 -4.16895 -9.32663
upperneck 47.9614 -0.8519 -7.08577
head 18.834 -2.79244 -1.87643
rclavicle -9.96905e-014 4.77083e-015
rhumerus 53.2525 -2.87057 -70.3577
rradius 136.382
rwrist -60.0743
rhand -0.263186 -41.5704
rfingers 7.12502
rthumb 25.3383 -69.9071
lclavicle -9.96905e-014 4.77083e-015
lhumerus -32.3767 -30.4546 81.6081
lradius 34.3429
lwrist 19.1783
lhand -14.7964 -25.1702
lfingers 7.12502
lthumb 11.3611 4.50207
rfemur -23.5024 -27.5131 25.9622
rtibia 70.248
rfoot -49.3834 -36.723
rtoes 11.6097
lfemur -32.5752 -17.2202 1.9464
ltibia 14.1872
lfoot 14.8341 -3.40169
ltoes -16.7669
535
root 1.06202 15.2052 -6.02779 -4.19045 -8.33461 1.04128
lowerback -1.44904 8.53559 9.31182
upperback -1.40458 11.3627 -4.85531
thorax 2.12525 5.79498 -9.64758
lowerneck -1.52272 -4.16615 -9.29877
upperneck 47.9373 -0.848756 -7.12097
head 18.7897 -2.78771 -1.89247
rclavicle -1.37062e-013 3.49861e-014
rhumerus 53.3456 -2.78802 -70.3447
rradius 136.363
rwrist -59.92
rhand -1.76201 -42.9697
rfingers 7.12502
rthumb 23.9016 -71.5023
lclavicle -1.37062e-013 3.49861e-014
lhumerus -32.6161 -30.3601 81.6291
lradius 34.5769
lwrist 19.1733
lhand -15.1828 -24.9997
lfingers 7.12502
lthumb 10.9884 4.69268
rfemur -23.5181 -27.7061 25.8848
rtibia 70.2646
rfoot -49.3332 -36.8751
rtoes 11.4553
lfemur -32.6171 -17.2644 1.8075
ltibia 14.0767
lfoot 14.8872 -3.55956
ltoes -16.5783
